<svg xmlns="http://www.w3.org/2000/svg" width="807" height="200" viewBox="0 0 807 200" fill="none"><g clip-path="url(#clip0_629_824)"><path d="M800.103 172.414L800.094 173.126C799.716 188.032 787.512 200 772.513 200H582.833C568.763 200 557.154 189.469 555.458 175.86C560.089 175.854 564.684 175.444 569.214 174.616C570.268 181.187 575.964 186.207 582.833 186.207H772.513C780.132 186.207 786.308 180.032 786.308 172.414V161.198C788.512 161.766 790.823 162.069 793.205 162.069C795.587 162.069 797.898 161.766 800.103 161.198V172.414Z" fill="#00A970"></path><path fill-rule="evenodd" clip-rule="evenodd" d="M704.591 51.1803C713.743 51.1803 721.992 53.393 729.274 57.8613C736.56 62.2346 742.311 68.1114 746.496 75.4664C750.692 82.8401 752.782 90.9422 752.782 99.7272C752.782 106.302 751.579 112.554 749.165 118.462L749.162 118.47C746.756 124.293 743.395 129.463 739.083 133.964L739.073 133.976C734.744 138.432 729.622 141.927 723.732 144.461C717.858 147.013 711.468 148.276 704.591 148.276C695.441 148.276 687.166 146.094 679.827 141.691L679.807 141.679C672.585 137.245 666.869 131.34 662.686 123.99C658.49 116.616 656.4 108.513 656.4 99.7272C656.4 93.1538 657.602 86.9311 660.019 81.0799C662.424 75.1946 665.789 70.0177 670.111 65.5694C674.494 61.0595 679.611 57.5334 685.445 54.9973C691.32 52.443 697.712 51.1803 704.591 51.1803ZM704.591 65.5172C698.092 65.5173 692.434 66.9222 687.553 69.671C682.674 72.4185 678.827 76.3395 675.998 81.4874C673.249 86.5377 671.828 92.5916 671.828 99.7272C671.828 106.861 673.247 112.914 675.994 117.964C678.822 123.05 682.672 126.977 687.561 129.789C692.44 132.534 698.096 133.939 704.591 133.939C711.086 133.939 716.742 132.534 721.621 129.789C726.509 126.978 730.325 123.054 733.092 117.972L733.102 117.955C735.906 112.908 737.354 106.858 737.354 99.7272C737.354 92.597 735.906 86.5484 733.102 81.5009L733.087 81.4756C730.318 76.3345 726.505 72.417 721.629 69.671C716.748 66.9222 711.09 65.5172 704.591 65.5172Z" fill="#00A970"></path><path d="M773.225 0.00841864C788.133 0.386177 800.103 12.5889 800.103 27.5862V122.538C804.225 124.923 807 129.378 807 134.483C807 140.525 803.113 145.654 797.705 147.52C797.688 147.526 797.671 147.533 797.654 147.538C797.456 147.606 797.256 147.668 797.055 147.727C796.965 147.753 796.875 147.778 796.785 147.803C796.686 147.829 796.586 147.854 796.485 147.878C796.402 147.899 796.319 147.919 796.235 147.937C796.084 147.971 795.934 148.003 795.782 148.032C795.661 148.055 795.541 148.078 795.42 148.097C795.331 148.112 795.241 148.123 795.152 148.136C795.042 148.152 794.931 148.165 794.82 148.178C794.707 148.191 794.594 148.203 794.48 148.214C794.322 148.228 794.163 148.241 794.003 148.251C793.946 148.254 793.888 148.256 793.83 148.259C793.623 148.268 793.415 148.276 793.205 148.276C792.995 148.276 792.786 148.268 792.579 148.259C792.521 148.256 792.463 148.254 792.405 148.251C792.246 148.241 792.087 148.228 791.929 148.214C791.815 148.203 791.702 148.191 791.589 148.178C791.478 148.165 791.367 148.152 791.257 148.136C791.167 148.123 791.078 148.112 790.989 148.097C790.868 148.078 790.747 148.055 790.627 148.032C790.475 148.003 790.324 147.971 790.174 147.937C790.09 147.919 790.007 147.899 789.923 147.878C789.823 147.854 789.723 147.829 789.623 147.803C789.533 147.778 789.443 147.753 789.354 147.727C789.152 147.668 788.952 147.606 788.755 147.538C788.738 147.533 788.721 147.526 788.704 147.52C783.296 145.654 779.41 140.524 779.41 134.483C779.41 129.378 782.185 124.923 786.308 122.538V27.5862C786.308 19.9685 780.132 13.7931 772.513 13.7931H582.833C576.268 13.7931 570.775 18.38 569.382 24.5235C565.209 23.8879 561.005 23.5942 556.805 23.5941C556.38 23.5941 555.954 23.6 555.53 23.6059C557.426 10.4854 568.557 0.352125 582.121 0.00841864L582.833 0H772.513L773.225 0.00841864Z" fill="#00A970"></path><path d="M630.795 53.9029C632.048 53.9032 633.064 54.9182 633.064 56.1709V143.285C633.064 144.538 632.048 145.553 630.795 145.553H620.63C619.377 145.553 618.361 144.538 618.361 143.285V56.1709C618.361 54.9182 619.377 53.9032 620.63 53.9029H630.795Z" fill="#00A970"></path><path fill-rule="evenodd" clip-rule="evenodd" d="M215.936 51.1807C222.921 51.1807 229.239 52.4385 234.84 55.0107C240.463 57.505 245.164 61.0398 248.905 65.6162C252.688 70.1696 255.43 75.4765 257.144 81.5029C258.864 87.5572 259.361 94.079 258.671 101.041C258.556 102.201 257.578 103.085 256.412 103.085H184.745C184.731 108.909 185.924 113.978 188.258 118.348C190.877 123.193 194.747 126.993 199.939 129.758C205.111 132.512 211.385 133.938 218.841 133.938C223.226 133.938 227.595 133.171 231.958 131.622C236.352 130.023 240.04 127.789 243.058 124.939C243.538 124.485 244.193 124.263 244.851 124.332C245.509 124.401 246.104 124.754 246.48 125.298L252.38 133.828C253.046 134.792 252.87 136.106 251.971 136.858C248.836 139.481 245.325 141.647 241.449 143.362C237.604 145.064 233.628 146.297 229.526 147.056C225.518 147.868 221.531 148.276 217.569 148.276C208.169 148.276 199.767 146.299 192.43 142.28L192.416 142.273C185.097 138.201 179.352 132.518 175.213 125.261C171.057 117.973 169.016 109.559 169.016 100.091C169.016 93.1774 170.179 86.7218 172.53 80.748C174.872 74.7994 178.177 69.6128 182.447 65.2139C186.71 60.7626 191.68 57.3214 197.342 54.9033C203.09 52.4137 209.297 51.1807 215.936 51.1807ZM215.936 65.5176C207.231 65.5176 200.243 67.8698 194.794 72.4287L194.783 72.4395C189.935 76.4464 186.819 81.9468 185.527 89.1113H243.098C242.412 81.8096 239.966 76.2807 235.94 72.3047L235.931 72.2939C231.525 67.8894 224.986 65.5176 215.936 65.5176Z" fill="white"></path><path fill-rule="evenodd" clip-rule="evenodd" d="M375.425 10.3447C376.677 10.345 377.693 11.3608 377.693 12.6133V143.285C377.693 144.538 376.678 145.553 375.425 145.554H365.261C364.008 145.554 362.991 144.538 362.991 143.285V134.584C360.148 137.448 356.955 140.017 353.418 142.29L353.404 142.299C346.991 146.355 338.595 148.276 328.413 148.276C319.265 148.276 311.122 146.094 304.064 141.667L304.045 141.655C297.116 137.206 291.704 131.284 287.833 123.924C283.961 116.561 282.037 108.481 282.037 99.7275C282.037 93.1775 283.141 86.9751 285.361 81.1387C287.576 75.2573 290.718 70.0769 294.793 65.6201C298.937 61.0939 303.851 57.5535 309.514 55.0088C315.223 52.443 321.535 51.1807 328.413 51.1807C337.975 51.1807 346.18 53.1495 352.906 57.2217C356.69 59.478 360.054 62.1267 362.991 65.167V12.6133C362.992 11.3607 364.008 10.3449 365.261 10.3447H375.425ZM330.229 65.5176C323.73 65.5176 318.071 66.9222 313.19 69.6709C308.311 72.4187 304.463 76.3406 301.633 81.4893C298.884 86.5392 297.466 92.5927 297.466 99.7275C297.466 106.862 298.885 112.916 301.633 117.966C304.461 123.051 308.31 126.977 313.198 129.788C318.078 132.534 323.733 133.938 330.229 133.938C336.723 133.938 342.379 132.534 347.258 129.788C352.146 126.977 355.961 123.053 358.729 117.972L358.739 117.955C361.544 112.908 362.991 106.858 362.991 99.7275C362.991 92.5974 361.544 86.5485 358.739 81.501L358.724 81.4756C355.955 76.3345 352.143 72.4169 347.267 69.6709C342.386 66.9222 336.727 65.5176 330.229 65.5176Z" fill="white"></path><path d="M447.386 50.2725C453.601 50.2725 459.421 51.2135 464.824 53.1182C470.293 54.9642 475.097 57.7143 479.207 61.374C480.017 62.0955 480.204 63.2892 479.651 64.2227L474.388 73.1162C474.025 73.7297 473.393 74.1371 472.685 74.2158C471.976 74.2942 471.271 74.0338 470.782 73.5146C469.03 71.6534 466.903 70.0456 464.378 68.6992C464.37 68.695 464.362 68.6908 464.354 68.6865C464.345 68.6813 464.336 68.6743 464.326 68.6689C461.853 67.2641 459.142 66.1897 456.184 65.4502L456.144 65.4395C453.194 64.6455 450.156 64.2481 447.023 64.248C441.301 64.248 436.822 65.5046 433.424 67.8408C430.171 70.0771 428.6 73.0669 428.6 77.042C428.6 81.2268 430.185 84.0424 433.298 85.8906C436.874 88.0133 442.658 90.0972 450.822 92.0781C461.048 94.5275 468.763 97.8101 473.653 102.102C478.761 106.531 481.237 112.611 481.237 120.055C481.237 125.73 479.762 130.765 476.741 135.062C473.747 139.319 469.555 142.588 464.271 144.908L464.25 144.919C458.95 147.181 452.826 148.276 445.934 148.276C439.447 148.276 433.142 147.205 427.031 145.063L427.005 145.054C420.986 142.859 415.99 140 412.092 136.428C411.276 135.68 411.12 134.454 411.72 133.524L417.346 124.813C417.716 124.241 418.323 123.864 419.001 123.789C419.679 123.714 420.354 123.948 420.841 124.426C423.996 127.524 427.785 129.964 432.238 131.735C436.693 133.447 441.314 134.301 446.115 134.301C452.863 134.301 457.894 132.96 461.439 130.526C464.87 128.171 466.535 125.001 466.535 120.78C466.535 116.697 465.094 113.956 462.372 112.142L462.334 112.116C459.304 110.007 453.451 107.726 444.452 105.371C436.557 103.304 430.171 100.851 425.429 97.9463L425.427 97.9443C423.999 97.0694 422.719 96.1532 421.593 95.1943C416.529 90.8839 414.078 84.9136 414.078 77.5859C414.078 72.3603 415.543 67.6358 418.483 63.4883C421.397 59.3189 425.382 56.0803 430.36 53.7529C435.368 51.4118 441.062 50.2725 447.386 50.2725Z" fill="white"></path><path d="M556.803 51.1807C562.194 51.1807 567.197 51.8692 571.792 53.2715C576.412 54.6207 580.76 56.7992 584.829 59.7871C585.315 60.144 585.638 60.6806 585.729 61.2764C585.818 61.8718 585.668 62.4785 585.311 62.9629L579.139 71.3125C578.767 71.8152 578.204 72.1427 577.583 72.2168C576.962 72.2908 576.336 72.1047 575.856 71.7031C573.515 69.743 570.645 68.2112 567.201 67.1387C563.746 66.0625 560.041 65.5176 556.077 65.5176C548.932 65.5176 542.869 66.9096 537.813 69.6055L537.796 69.6152C532.75 72.2499 528.836 76.0746 526.023 81.1367C523.285 86.1129 521.862 92.2201 521.862 99.5469C521.862 110.527 524.985 118.877 530.995 124.889C537.018 130.853 545.229 133.938 555.896 133.938C560.337 133.938 564.423 133.143 568.18 131.573L568.191 131.568C572.102 129.958 574.968 128.064 576.919 125.955C577.354 125.485 577.969 125.22 578.61 125.228C579.251 125.235 579.86 125.513 580.284 125.993L587.182 133.798C587.6 134.271 587.802 134.898 587.738 135.526C587.675 136.155 587.353 136.731 586.848 137.111C582.268 140.561 577.364 143.297 572.141 145.311L572.118 145.319C566.83 147.294 561.236 148.275 555.352 148.275C545.875 148.275 537.401 146.202 529.998 141.99L529.984 141.982C522.623 137.731 516.827 131.939 512.633 124.631L512.626 124.619C508.48 117.284 506.435 108.966 506.435 99.7275C506.435 92.6844 507.661 86.181 510.149 80.248C512.626 74.3429 516.129 69.2113 520.655 64.877C525.237 60.4868 530.609 57.1219 536.745 54.7803C542.901 52.3707 549.595 51.1807 556.803 51.1807Z" fill="white"></path><path d="M104.822 51.1807C112.801 51.1807 119.509 52.8116 124.767 56.2715C129.871 59.6313 133.648 63.9425 136.018 69.1982C138.381 74.2499 139.582 79.4127 139.582 84.665V143.285C139.582 144.538 138.566 145.554 137.313 145.554H127.149C125.897 145.554 124.88 144.538 124.88 143.285V87.749C124.88 80.9339 122.99 75.6091 119.377 71.5654C115.878 67.6495 110.562 65.5178 103.009 65.5176C98.1654 65.5176 93.7963 66.6114 89.8574 68.7734C85.9884 70.9303 82.891 73.9652 80.5498 77.9209C78.3031 81.7585 77.1436 86.2807 77.1436 91.5615V143.285C77.1434 144.538 76.126 145.554 74.873 145.554H64.709C63.456 145.554 62.4406 144.538 62.4404 143.285V87.749C62.4403 80.9337 60.5484 75.6092 56.9355 71.5654C53.4366 67.6496 48.1218 65.5177 40.5684 65.5176C35.7249 65.5176 31.3549 66.6113 27.416 68.7734C23.5474 70.9302 20.4504 73.9646 18.1094 77.9199C15.8624 81.7576 14.7021 86.2805 14.7021 91.5615V143.285C14.702 144.538 13.6871 145.553 12.4346 145.554H2.26855C1.01588 145.553 0.000189536 144.538 0 143.285V56.1709C0 54.9182 1.01576 53.9017 2.26855 53.9014H12.4346C13.6872 53.9019 14.7021 54.9183 14.7021 56.1709V62.9414C16.3429 61.1795 18.0788 59.6363 19.9111 58.3223C23.3663 55.8276 27.0125 54.0132 30.8467 52.9062C34.623 51.756 38.4711 51.1807 42.3828 51.1807C50.6131 51.1807 57.4722 52.9379 62.749 56.6758C66.7862 59.5026 69.9944 62.8396 72.3301 66.6904C77.1132 60.8294 82.2142 56.7584 87.6729 54.6875C93.6284 52.3694 99.3509 51.1808 104.822 51.1807Z" fill="white"></path></g><defs><clipPath id="clip0_629_824"><rect width="807" height="200" fill="white"></rect></clipPath></defs></svg>